PathFileType	3	(X/Y/Z)	results
DataRate	CameraRate	NumFrames	NumMarkers	Units	OrigDataRate	OrigDataStartFrame	OrigNumFrames
30.0	30.0	4	85	mm	30.0	359	478
Frame#	Time	head			nose			neck			shoulder_r			elbow_r			wrist_r			shoulder_l			elbow_l			wrist_l			hip_r			knee_r			ankle_r			hip_l			knee_l			ankle_l			heel_r			heel_l			mtoe_r			ltoe_r			mtoe_l			ltoe_l			asis_l			asis_r			psi_r			psi_l			mhnd_r			lhnd_r			mhnd_l			lhnd_l			l_lat_knee			r_med_wrist			l_lat_ankle			r_med_ankle			r_lat_knee			xiphoid			l_med_ankle			r_med_knee			l_med_elbow			navel			r_lat_elbow			r_lat_wrist			l_med_wrist			l_lat_elbow			l_med_knee			r_med_elbow			r_lat_ankle			l_lat_wrist			chin			T10			r_eye			l_eye			l_ear			r_ear			spinal_cord_8			spinal_cord_12			spinal_cord_27			spinal_cord_33			up_arm_r_0			up_arm_r_5			up_arm_l_0			up_arm_l_5			front_torso_11			front_torso_7			front_torso_4			front_torso_1			front_torso_10			thigh_r_2			thigh_r_3			thigh_l_1			thigh_l_5			shank_l_0			shank_l_4			shank_r_1			shank_r_2			foot_r_1			foot_r_3			foot_r_5			foot_r_6			foot_r_7			foot_l_1			foot_l_7			foot_l_0			foot_l_4			foot_l_5			foot_l_6			
		X1	Y1	Z1	X2	Y2	Z2	X3	Y3	Z3	X4	Y4	Z4	X5	Y5	Z5	X6	Y6	Z6	X7	Y7	Z7	X8	Y8	Z8	X9	Y9	Z9	X10	Y10	Z10	X11	Y11	Z11	X12	Y12	Z12	X13	Y13	Z13	X14	Y14	Z14	X15	Y15	Z15	X16	Y16	Z16	X17	Y17	Z17	X18	Y18	Z18	X19	Y19	Z19	X20	Y20	Z20	X21	Y21	Z21	X22	Y22	Z22	X23	Y23	Z23	X24	Y24	Z24	X25	Y25	Z25	X26	Y26	Z26	X27	Y27	Z27	X28	Y28	Z28	X29	Y29	Z29	X30	Y30	Z30	X31	Y31	Z31	X32	Y32	Z32	X33	Y33	Z33	X34	Y34	Z34	X35	Y35	Z35	X36	Y36	Z36	X37	Y37	Z37	X38	Y38	Z38	X39	Y39	Z39	X40	Y40	Z40	X41	Y41	Z41	X42	Y42	Z42	X43	Y43	Z43	X44	Y44	Z44	X45	Y45	Z45	X46	Y46	Z46	X47	Y47	Z47	X48	Y48	Z48	X49	Y49	Z49	X50	Y50	Z50	X51	Y51	Z51	X52	Y52	Z52	X53	Y53	Z53	X54	Y54	Z54	X55	Y55	Z55	X56	Y56	Z56	X57	Y57	Z57	X58	Y58	Z58	X59	Y59	Z59	X60	Y60	Z60	X61	Y61	Z61	X62	Y62	Z62	X63	Y63	Z63	X64	Y64	Z64	X65	Y65	Z65	X66	Y66	Z66	X67	Y67	Z67	X68	Y68	Z68	X69	Y69	Z69	X70	Y70	Z70	X71	Y71	Z71	X72	Y72	Z72	X73	Y73	Z73	X74	Y74	Z74	X75	Y75	Z75	X76	Y76	Z76	X77	Y77	Z77	X78	Y78	Z78	X79	Y79	Z79	X80	Y80	Z80	X81	Y81	Z81	X82	Y82	Z82	X83	Y83	Z83	X84	Y84	Z84	X85	Y85	Z85	
359	11.966666666666667	74.63375119799505	2047.5983569534533	1620.8711693371458	69.93263604667777	1793.8470845936154	1531.848774780821	104.25785367225893	1653.2405460685159	1740.9456987214592	282.8774074743293	1603.871524304198	1670.5399130703088	295.9779396759161	1296.6856889665937	1619.5766559795493	241.3542304501309	1063.703362704532	1457.6716207934057	-69.55372133324386	1620.9823692396444	1789.4991322580156	-113.10980291090249	1317.4656218586892	1854.3504176221436	-22.874067349824834	1171.205561068551	1608.342496642476	201.46979701766827	1142.767018579247	1782.4882538530292	236.96309207887722	654.7476567071022	1780.1523095967846	273.16825786619563	163.95521337034026	1845.07261928296	19.778197146062798	1132.3820390897931	1860.6452301881757	-106.6048702245983	658.2715229750797	1802.7925503759043	-69.96354251196763	226.07971102941076	2013.0046355855002	272.5141648587399	101.06401955749419	1864.2901419474047	-61.27053693251498	169.17739061263325	2060.353697093857	199.63281971373092	66.52855162016013	1625.1569466675412	289.1964861548012	65.44827310425936	1669.5676960933	-149.98798592797743	77.17831184241156	1846.7717597641501	-205.24223350681456	96.24207041633694	1937.1841062914968	-36.72640775920319	1199.5928217243932	1849.7345576519147	230.6136658505273	1211.2683044205112	1737.8617299289645	196.57128751068043	1204.0540640016984	1904.9181440934428	103.58841939202016	1199.4399791239903	1938.501454458529	246.59887368676434	993.0200117674815	1438.7495333796717	217.41567525280092	1007.1983596380112	1396.130785913649	-6.689091603420197	1110.7892532025724	1564.7244601818356	6.2230500920811975	1147.7356022099814	1528.3377700937629	-160.01613479613297	666.604806099421	1831.9194896995477	270.05341669518435	1056.2225159917655	1478.6895964134694	-127.7795478080093	217.60846678091616	2048.3983376459414	226.75321971226217	148.32959192780837	1845.28802295063	289.92686796941194	647.2435326529187	1767.4999316341443	79.92795315342072	1448.564738290448	1689.743115595331	-40.04129321074201	202.49654799218715	1991.8743344536883	184.7983208098456	644.6693571613604	1782.6071955709467	-82.50505775176853	1329.746080438852	1882.0956400915625	81.90316777135132	1212.5439371747837	1733.2487030875493	323.7337712939124	1311.682661752275	1583.864982316543	209.24645857689998	1086.8970725180136	1451.5056423634244	-48.013897424563886	1145.749111332018	1629.8605120212542	-152.09500346915493	1331.5290272220964	1830.7428101581588	-64.3542371470572	656.3110758373986	1758.97926203072	270.5549277004228	1296.9436755988145	1655.3962078314053	330.36956919693216	141.8683925439489	1824.3589721783164	-18.512204392781896	1209.9704053038388	1598.6905583518276	85.28076449180841	1708.7062604254713	1579.6890499554493	149.15639430593293	1511.7789845084403	1882.2304188345486	106.42043411665706	1834.8159705324422	1513.9781754681062	21.01575695171512	1829.1079464503823	1531.2021871710083	-20.857203445292406	1854.0169924484226	1667.776368392043	191.97584506267597	1865.287394253929	1629.1448413338294	118.76973704020398	1728.8314227569722	1774.3654275447748	141.8098453549083	1618.049147736926	1856.9058076944018	163.82724079188105	1346.2751337305885	1901.404627051192	144.84170654409516	1498.1534117348776	1871.7817318991579	257.66771275865733	1458.2032878452553	1600.7273205402507	332.5495680719652	1418.4430167145047	1663.1348865687446	-110.60597208634098	1561.567773216708	1789.3256720794398	-77.76054268850616	1408.0553051513814	1879.9841456832226	147.9227106898751	1250.1281244740292	1747.0557366569153	74.26641888997584	1348.2754386855402	1681.4786715607042	4.476196690412021	1498.1057041789745	1696.7380846226993	15.079196681824461	1290.2402366446743	1778.8592424242743	159.03997634582944	1532.8774413572542	1622.9919070393369	198.27728998220283	876.2719753511248	1782.275821281757	320.21154801094184	840.0226147323717	1763.3228942490402	-16.04873832302105	786.3366260466229	1795.0883816754867	-133.3592265673547	1030.7602310163743	1881.900936409555	-161.0139918616489	333.27317790793944	1982.0803872047861	-38.70364754870773	483.05347165107406	1857.7921010242435	323.715800805992	446.610878527833	1785.3173732924647	205.31542233491518	396.2837398415439	1824.7013492058804	230.18323478967608	59.475669578408	1638.254742575909	261.40220461368637	62.29413314843643	1648.5259739352794	212.22684819960057	88.54453718967264	1715.9484002785048	256.15927840669593	95.8638460929386	1718.085408652823	293.1519625565664	80.83391698967486	1723.0886663886101	-187.89547727597966	81.11687753409596	1896.49391254146	-161.56810327796586	155.9262587070624	1989.085023021009	-199.4612285301915	86.17476764004697	1910.0184658017647	-173.4044542398328	75.12805362297763	1880.491460777788	-155.48298528637295	115.22254609826533	1931.0115470990777	-112.17040949437185	135.18743296305638	1940.8632867983138	
360	12.0	74.76115077644863	2046.9272631542292	1627.0016963531996	61.93263563000055	1794.9585449533279	1533.813769625663	97.14649751321929	1651.923363483547	1742.2409018846577	272.6510772909736	1599.90390121366	1677.9044596358258	274.0641859363478	1298.5275510318108	1598.5173471782664	217.67745504970407	1059.7023537189139	1446.0023771357676	-72.38615141984924	1619.3673750383496	1794.7224453862284	-120.23548614854806	1314.7512111391566	1850.7998138502949	-27.783059197599865	1167.8827252467913	1605.9803147455752	194.5311804495587	1141.441880284993	1779.725697330467	234.20774660196446	653.7922524704483	1766.2852251542947	272.76011336865287	164.90516863574462	1843.134541040585	13.66410140087941	1132.2578592516004	1859.9189120484818	-99.10089970006896	654.4224319351923	1814.4986843980193	-75.11471711006305	215.7041428176868	2012.6713258401692	272.28507967993454	102.12376498642018	1863.778469953539	-67.9172852847133	157.3566722342219	2058.4311209748425	202.537674580532	66.66176809554959	1623.8476041630668	291.6660455987179	67.47669978235965	1669.1311704822865	-157.67986287310137	72.82747622953832	1842.2151296794875	-212.44968769975924	88.53484022501127	1933.5627961840037	-42.111059684597166	1200.3123962382092	1850.601516786039	224.00734829981627	1210.1785842002798	1735.6832297142646	191.86356992031293	1201.1026439340055	1903.0247341927407	99.2353167168056	1197.1909036271884	1937.660658810795	228.60740609208912	990.5665505753789	1424.0372987527462	188.51372531223672	1000.1398432203777	1389.8336281280467	-11.954445872128954	1107.3632160636992	1562.374571899242	2.558644379700624	1144.2142279275677	1526.4981108187685	-153.73962991164476	661.3490219600999	1842.0175590063466	251.27374391523938	1056.6397314332107	1459.5401530621298	-132.5265032539052	208.49556772585782	2048.9906024019633	226.40706322798536	149.12515811987294	1844.1083078567167	287.7255822079464	647.1287437286602	1756.0158930795799	72.61105442214888	1447.3808576045053	1690.605543953331	-46.532365096986325	191.5725414107717	1990.339483664828	182.1267872104136	643.3809908525294	1767.0483939042888	-90.21173122813059	1326.0390214299116	1879.582046883727	75.64673828135207	1211.209273046357	1733.2227170870608	290.7936975502056	1317.3077760971096	1558.0445710810843	181.98681508163003	1077.8172754637997	1448.2169444570316	-53.93961868686222	1142.8660861793305	1626.7906256675628	-158.5024566818584	1329.7742641443085	1826.6152897126688	-56.86432611645267	651.5174743185142	1770.6316182163675	259.4667070483183	1295.010726686445	1639.79666338522	329.8793134128119	142.5112557342927	1822.5242887416393	-22.367610652098357	1206.5944704759145	1596.6544041640227	75.73242679184153	1708.6311966432897	1579.969718464682	144.1374798057605	1510.05131738896	1882.4293272542297	99.22337764438937	1835.2507431172885	1516.0625254441356	13.96978402767049	1831.505242805638	1534.5287920554952	-25.13329463430479	1855.157419691933	1672.1436027730654	187.30995673162903	1861.4647100984237	1630.3655413807376	111.9177661705495	1727.4247399524872	1775.7491910917565	136.24126921024464	1616.395878148734	1857.5870335086752	159.40719270604885	1344.5119666182661	1900.813228744579	139.72008813627787	1496.4541273210627	1871.9865835697624	230.56272403477547	1459.6952668511783	1605.112487091643	320.07870494461076	1417.4450216126725	1640.9549430927448	-113.95211200794512	1560.3713053447873	1792.0491923120437	-84.71591456581466	1404.3275857012875	1879.5675403251862	141.75477331754507	1248.8886684039992	1746.329060102453	67.06156306145539	1347.1098549735384	1682.0482781704554	-2.8526593796152078	1496.7298662219125	1698.7362077601601	9.238872533094966	1288.5927963376002	1779.9588385764484	150.68848799377992	1532.10836993075	1623.1649702785242	193.6278062289433	875.016969046466	1772.8849458740835	316.49707091761707	840.177296669485	1757.7016032604088	-12.398245848436858	783.7083146617362	1803.6813213969065	-137.09571775612378	1027.3238241748188	1882.0592073246432	-162.54488341491984	327.06495752337025	1986.3717483887972	-36.95741605610828	475.34837569375253	1863.5655973232529	321.7774879222499	446.1585127619096	1775.9495577780947	203.87946603080798	396.4104071085827	1817.5157758786409	233.11109645017788	60.26321729394238	1637.2247371475507	264.15664593905234	63.75701763075052	1647.8093119404332	213.74460817986315	88.68588814622397	1714.818720448321	257.47694896375504	96.99147714907676	1717.4065906907933	294.75032706639206	82.78798610736644	1722.7307023047476	-195.30754822243932	74.90759873002271	1892.2612390432623	-168.59760871725322	146.4293552411924	1987.3080977506163	-206.8052426357556	79.45464878346814	1906.0231340537052	-180.8970575253439	69.5250088982552	1875.9732156059924	-162.76545233000883	107.83408075590417	1927.787175159932	-119.437245355374	127.53184729442948	1938.0972274449696	
361	12.033333333333333	69.86428072429972	2046.0969391827252	1633.828064467107	52.617957543461486	1796.5571854142484	1534.9884415097388	88.49907850009463	1650.8781493096155	1743.3636269632434	265.0947441639098	1592.9932565453912	1678.2183715110734	252.48648922509602	1293.475255905601	1593.0009193697083	191.84968655004582	1056.0253383388201	1439.9699774410672	-78.22469440396046	1616.730409915046	1796.7760117717935	-137.94909942719775	1314.4139641063894	1853.8986818313715	-38.770293073206865	1169.8357717729086	1610.3517639467416	186.17339793456773	1138.187638821833	1780.7627135147786	230.93122550922683	651.6577773293221	1749.7485731517684	268.8908434691872	164.70727614664727	1838.2977678300963	5.509258365871308	1130.807187395585	1861.597086298886	-94.56442304312026	649.9899280892971	1826.7682548094645	-77.69518749471602	206.57869253534372	2014.9792402861895	268.0079770542042	102.00472472713118	1860.162357584333	-71.68842199492906	146.83006087136187	2059.3711278356936	205.24777650186002	66.57933584220999	1618.3043968934853	293.0761942893145	68.0390184422025	1666.045054285863	-159.44348914117515	70.38145815728393	1839.3563112038005	-215.14570846084192	83.1440583957507	1930.5990093722905	-50.0981113197448	1198.8654813322698	1851.350549512039	215.72004305880688	1206.127502677872	1735.5466925584433	184.0256813206833	1199.815094930985	1903.1008487104093	91.48535247841905	1196.7242915388783	1938.0533414693746	202.03570685901283	987.022427338362	1417.2426582372766	161.2266543640279	996.9975846655567	1384.013759286127	-22.278225569685222	1109.7430149224965	1566.4030542463793	-5.871110127093321	1146.8996147077519	1531.6763933219647	-150.06688424955843	655.5972214860506	1853.1618692601648	225.7272730416377	1052.7418378292027	1452.732791227291	-135.3836195003924	199.35273498209116	2050.853979911976	222.55401489003714	148.85728376856565	1838.7858967860923	284.74075652486573	645.9577106867007	1740.9255201210021	63.64091661197312	1446.5075013963062	1691.2047837371206	-49.34038829010345	182.56246479040894	1992.2367167899827	179.01788815711336	640.8104582281206	1750.0385946417796	-108.53768386668037	1324.9963134978154	1883.5675202844777	66.94749779794782	1210.1957692897297	1733.0173173216801	268.52761614622096	1312.4579510198407	1552.3443264153757	156.28357571877487	1074.2470372303976	1443.1160749311114	-66.06781596126986	1144.9292731984535	1629.7831418740288	-174.87698413411212	1330.442499707531	1828.3181865134143	-52.39030531411394	646.5638489692825	1782.7692527059328	239.17567472696905	1289.6469707933188	1634.6854829439117	326.41264642464193	141.97295060249505	1819.2382432989073	-32.41012500907628	1208.5932056758315	1601.8483240977628	65.23739874796634	1708.990362792942	1579.1021377420652	136.37385255778082	1508.5427457627168	1882.7812133487123	90.46994731105038	1836.6482524015605	1517.9854840813096	5.247643220641917	1833.8335333412754	1536.7589558392094	-32.88116408626404	1854.953328355483	1675.0574036723235	179.45407211162168	1858.8455863616216	1632.4437770570728	103.480388960017	1726.2682798318517	1777.028775541288	128.3201776458653	1614.9689820112187	1858.342517354661	151.76080641475735	1342.9437271905113	1900.5186122158652	131.89089537721136	1494.9801761466608	1872.3214034608397	215.32180732823957	1455.96751379184	1604.2240306594	304.3507866289858	1409.7114169355773	1636.1158801110414	-121.60721350501986	1559.1038114680277	1793.23429061256	-100.45899489072421	1403.058909899559	1883.0485459617678	133.13640607165476	1247.8334954428865	1745.831971029679	58.03866049619178	1346.2652996091854	1682.3496537017168	-11.770584152494157	1495.8268714421938	1699.974603401329	0.8346071675994216	1287.421561685251	1780.4276752981727	141.29101440469384	1531.4609817523983	1623.5554197794197	188.0776862094035	872.1851463784387	1764.364756508008	311.5264659404614	839.0855139475487	1750.0118479091316	-11.475735468047032	780.5336671009635	1813.1340225790311	-142.79301741731913	1022.6853379052347	1884.9630471174708	-163.43046060159045	319.72765027060944	1990.8191675453659	-35.17182813521426	468.98900277888765	1872.023937646683	318.6552968735733	444.47625165143637	1765.683801620949	200.1033607544784	395.4333886814126	1806.2153214951065	235.4927902950015	60.40791231293012	1632.5091825778804	266.2016241634718	64.1398612648601	1643.9593392084525	213.73773521763727	88.45855749876502	1709.6040216659858	257.3080908706933	97.13200233970647	1713.424096844826	294.5409521713882	83.23466300367863	1719.7461246978519	-197.61109210493734	70.88988780902339	1889.0328475173012	-171.6266732992135	138.90070833991007	1986.8184606871012	-209.23912120887482	75.00791985867765	1902.8202746335182	-183.0464036322324	66.01111496559999	1872.7232905596002	-165.31365365274254	102.38906809108171	1926.0451491428905	-122.01280071114371	121.49933893288353	1937.5110284046943	
362	12.066666666666666	61.37797874872036	2044.572213737116	1639.6256454233073	41.26623042096909	1797.3077123228727	1535.7383056748504	78.45776678605544	1649.1755527262253	1743.6566746678861	259.9114580679519	1586.962317476643	1680.284064966013	234.6888323897	1288.7900927974933	1593.1682883632247	165.3646050417778	1056.057409049698	1436.619881163236	-88.29899348654183	1612.677581871151	1799.3217934301624	-154.9349939045323	1311.2174930071246	1853.2355733651716	-48.617944848568186	1171.1810214437148	1610.046629843012	177.12536163443855	1135.183492486052	1783.365043224557	224.52654606233955	650.3474145860405	1733.519906489446	261.6238387656266	165.1047548701075	1831.3260164304866	-3.3914091950498633	1127.8596646885678	1864.5331108893683	-93.42491777984652	644.9524022711242	1838.3575329414098	-77.54226113307597	198.54016353029098	2019.424714666396	260.28228882462116	102.60347750641624	1854.1157202155396	-72.15448428300897	137.2596615602673	2062.6466745022035	205.35069678743787	65.23548440949506	1610.6506767519595	291.6110426620254	67.31079726417968	1661.1479818161752	-155.83532268553176	70.59566639035178	1837.9128558709633	-213.19011919281434	79.28584149090791	1928.608827917021	-59.623295742303085	1195.1825692721384	1852.9269096668525	206.0134940723905	1202.427683714062	1736.706577322464	174.52880485055277	1199.3337749877373	1904.3905550148627	82.05188560626192	1196.136860159653	1939.500972565434	172.29255127481363	986.7109640684422	1413.7121989601703	133.1707246159359	999.1928273081885	1379.3213858891854	-31.007883025962162	1111.9237788669443	1565.4026859586288	-13.293843628018033	1149.7015673972705	1532.0140827282828	-149.1898004970939	649.4848999974963	1864.6528515502214	198.5869388411684	1050.7667417637006	1450.3911205564248	-135.61133396713655	190.58782084129066	2054.523284708524	215.35478617411223	149.0641822558475	1830.6649464441882	278.5337954742552	645.2613179647751	1726.0464531566029	53.63516359244101	1444.7730840493996	1691.6056992960382	-48.872863660075	174.96900723868808	1996.611068583012	172.72585500713748	639.3224596934892	1733.548248111089	-126.23397020365194	1321.1584419897624	1883.8082119643873	57.0128371777926	1208.4827870063689	1733.5335303820493	253.0182258159414	1307.0568470411415	1553.1560646886737	130.8170064333544	1076.270189930318	1438.8069794778332	-76.65763462048066	1146.0312472129317	1628.055836623219	-190.806110080101	1327.9976976018947	1826.6530204171802	-51.78566350826295	641.3318079712474	1793.7769209053088	219.8322479786744	1285.5126926454877	1634.374804082926	319.78835840731114	142.30663965958257	1814.4142617536825	-41.78997142320762	1210.0702810805078	1602.569787353478	53.26464254754713	1708.7304898247764	1577.9678057494048	126.40889132462546	1506.920689595642	1883.1302135871672	79.41566437616369	1837.3831080169937	1519.3752163663596	-5.736751706940893	1834.9851505168829	1538.52000246463	-42.98499593578768	1853.5944818127714	1677.4177110552541	169.1666735398003	1856.3629581434898	1633.8134904518606	93.43019389878057	1724.5859656446223	1777.2803229212986	118.32155325868378	1613.332879588855	1858.6415205360067	141.84226882461982	1341.3342526694248	1900.944572533518	121.92623971551727	1493.3518594367886	1872.6783953130503	205.60342529917338	1452.9473626800598	1604.00044048383	291.02955486499377	1402.0408472141526	1638.5515444267987	-132.55353079331962	1555.8353908903832	1794.2313265393577	-116.78701033482109	1399.068973574986	1883.8949543643037	123.19613422911222	1246.143278711808	1746.310224556306	48.05525891652266	1344.525146151379	1682.8015393893288	-21.78603286443334	1494.0780031909076	1700.3733968089593	-9.105352743925959	1285.7154529655843	1780.925297941231	131.2442518660784	1529.7125762210565	1623.8917417786308	180.50258881560774	870.0147600710509	1756.8323656379303	304.2843848876577	838.0106939802245	1742.8681404812507	-13.453583120546723	776.5811043799793	1821.7449898315542	-149.28624966346027	1017.1066908842379	1890.5781062408284	-163.28839529757272	311.8694434161322	1996.1651445385976	-34.083992661283204	463.37071125307693	1881.2951180537732	312.51470259861634	443.8418075725231	1755.591321637659	192.96705622490677	394.96532691094166	1793.3009749619237	235.14583017055293	59.26008761256251	1625.854884191555	265.46403745784824	63.16924404188699	1638.2480601485656	210.86898334528027	87.80101160233163	1702.011208267853	254.27088289343436	96.63583463160198	1707.151104100266	291.3230928941143	82.89919180870037	1714.7556037848908	-194.89390282002503	68.8903770740382	1886.8648934490027	-170.75765314864427	132.51435625434172	1988.0188286073274	-206.77366463181144	72.38973121594987	1900.6085529025	-180.03155604978477	64.74375592160371	1870.6214207777884	-163.30636183469633	98.73157234468859	1925.81311137945	-120.2417278237542	117.3310582747186	1938.8947444963615	
